#!OML:ASF F:\VICON\USERDATA\INSTALL\rory3\rory3.ASF
:FULLY-SPECIFIED
:DEGREES
316
root 9.15594 17.9066 12.9588 0.33161 -87.5342 1.73122
lowerback 9.68082 0.56183 1.70927
upperback 0.656291 0.95947 1.22314
thorax -4.74012 0.435502 0.181697
lowerneck -20.0006 -6.58907 -12.1223
upperneck 26.909 -8.45383 8.74775
head 13.3114 -3.96079 3.94573
rclavicle -1.19271e-015 7.15625e-015
rhumerus -35.665 -18.3902 -71.7185
rradius 28.5869
rwrist 5.45113
rhand -17.4633 7.49288
rfingers 7.12502
rthumb 8.78826 -22.3041
lclavicle -1.19271e-015 7.15625e-015
lhumerus -29.6906 7.43362 75.9865
lradius 35.7211
lwrist -3.82308
lhand -17.056 26.5203
lfingers 7.12502
lthumb 9.18127 56.3005
rfemur 12.3957 7.47 26.4603
rtibia 19.6097
rfoot -1.02617 23.4476
rtoes 24.0659
lfemur -20.6858 -6.41696 -17.4717
ltibia 21.2403
lfoot -4.44566 -6.47511
ltoes -9.80846
317
root 9.01917 17.9129 13.0012 -0.0903561 -87.947 1.90621
lowerback 9.68985 0.581426 1.63648
upperback 0.687574 0.974998 1.18352
thorax -4.71282 0.444489 0.179333
lowerneck -19.9472 -6.54321 -12.0072
upperneck 26.8716 -8.44814 8.7921
head 13.2798 -3.94349 3.94502
rclavicle 3.27995e-015 -7.95139e-015
rhumerus -36.2706 -19.0108 -71.0981
rradius 28.1728
rwrist 5.71631
rhand -17.5899 7.45465
rfingers 7.12502
rthumb 8.66608 -22.3475
lclavicle 3.27995e-015 -7.95139e-015
lhumerus -29.7063 7.34822 76.0196
lradius 35.9662
lwrist -3.90404
lhand -17.2951 27.1234
lfingers 7.12502
lthumb 8.95062 56.9135
rfemur 11.9398 7.2631 26.1269
rtibia 21.6222
rfoot -0.113218 23.6122
rtoes 23.1308
lfemur -19.9378 -6.22742 -17.5802
ltibia 21.2552
lfoot -4.06003 -7.10742
ltoes -8.1968
318
root 8.89157 17.9207 13.0443 1.09597 -88.3488 0.503345
lowerback 9.76266 0.566977 1.64841
upperback 0.702277 0.955317 1.12009
thorax -4.73702 0.4337 0.108589
lowerneck -20.0113 -6.45929 -11.81
upperneck 26.956 -8.41485 8.83754
head 13.3149 -3.9043 3.93727
rclavicle -6.11263e-015 9.93923e-015
rhumerus -36.8124 -19.5628 -70.605
rradius 27.6409
rwrist 5.90917
rhand -17.9113 7.53568
rfingers 7.12502
rthumb 8.35591 -22.279
lclavicle -6.11263e-015 9.93923e-015
lhumerus -29.7102 7.32648 75.9362
lradius 36.1995
lwrist -4.11441
lhand -17.1045 27.6993
lfingers 7.12502
lthumb 9.13453 57.4815
rfemur 11.4115 7.12177 25.7875
rtibia 23.6396
rfoot 1.53508 23.7378
rtoes 24.6576
lfemur -19.3367 -5.72929 -17.6638
ltibia 21.4916
lfoot -4.17521 -7.43874
ltoes -8.81918
319
root 8.7723 17.8983 13.0891 8.72418 -88.7083 -7.25023
lowerback 9.7838 0.559215 1.76059
upperback 0.678639 0.958034 1.11402
thorax -4.7716 0.432302 0.0384892
lowerneck -20.0693 -6.39065 -11.6675
upperneck 27.012 -8.36738 8.8415
head 13.3363 -3.86886 3.92417
rclavicle -1.88845e-015 8.74653e-015
rhumerus -37.4933 -20.284 -69.9652
rradius 27.316
rwrist 6.25392
rhand -18.0012 7.6872
rfingers 7.12502
rthumb 8.2692 -22.131
lclavicle -1.88845e-015 8.74653e-015
lhumerus -29.6859 7.49209 75.8204
lradius 36.2603
lwrist -4.38221
lhand -17.1962 26.9352
lfingers 7.12502
lthumb 9.04601 56.7212
rfemur 10.6022 6.18256 25.512
rtibia 25.7086
rfoot 2.64973 24.7552
rtoes 22.6869
lfemur -18.9261 -5.1346 -17.6288
ltibia 21.8119
lfoot -4.71492 -7.40774
ltoes -12.0247
320
root 8.65502 17.8937 13.1338 38.5519 -88.8329 -37.0976
lowerback 9.7655 0.499842 2.27164
upperback 0.603374 0.940568 1.21632
thorax -4.83396 0.412506 -0.139983
lowerneck -20.001 -6.33907 -11.6558
upperneck 26.96 -8.3207 8.89858
head 13.2965 -3.84283 3.95357
rclavicle 2.5345e-015 7.55382e-015
rhumerus -38.2518 -21.1515 -69.1753
rradius 27.2508
rwrist 6.60297
rhand -17.4207 7.71044
rfingers 7.12502
rthumb 8.82934 -22.0849
lclavicle 2.5345e-015 7.55382e-015
lhumerus -29.7434 7.65843 75.7629
lradius 36.3651
lwrist -4.31594
lhand -17.651 25.8738
lfingers 7.12502
lthumb 8.60714 55.6783
rfemur 9.5793 5.66866 25.6445
rtibia 27.883
rfoot 5.07745 24.9456
rtoes 23.5643
lfemur -18.5305 -4.48616 -17.1665
ltibia 21.9447
lfoot -5.06452 -7.43936
ltoes -13.2397
321
root 8.53452 17.9024 13.1739 56.8813 -89.0012 -55.4412
lowerback 9.72128 0.45221 2.33712
upperback 0.537082 0.884874 1.19546
thorax -4.87827 0.383149 -0.190748
lowerneck -20.0104 -6.2358 -11.5699
upperneck 27.0423 -8.22274 8.92975
head 13.3165 -3.79029 3.97191
rclavicle 4.67144e-015 7.95139e-016
rhumerus -38.9563 -21.8981 -68.5061
rradius 27.3253
rwrist 6.48472
rhand -16.6351 7.32697
rfingers 7.12502
rthumb 9.58742 -22.4349
lclavicle 4.67144e-015 7.95139e-016
lhumerus -29.8652 7.45832 75.8486
lradius 36.7187
lwrist -3.58488
lhand -18.2012 26.1183
lfingers 7.12502
lthumb 8.07617 55.944
rfemur 8.53983 5.50439 25.356
rtibia 30.0534
rfoot 7.88462 24.6389
rtoes 24.6442
lfemur -18.0306 -3.74414 -17.1505
ltibia 21.9312
lfoot -5.12797 -7.97297
ltoes -11.199
